M48
; DRILL file KiCad 10.0.0-unknown date 2026-06-28T14:52:51
; FORMAT={-:-/ absolute / metric / decimal}
; #@! TF.CreationDate,2026-06-28T14:52:51-04:00
; #@! TF.GenerationSoftware,Kicad,Pcbnew,10.0.0-unknown
; #@! TF.FileFunction,MixedPlating,1,2
FMAT,2
METRIC
; #@! TA.AperFunction,Plated,PTH,ComponentDrill
T1C0.600
; #@! TA.AperFunction,Plated,PTH,ComponentDrill
T2C1.000
; #@! TA.AperFunction,Plated,PTH,ComponentDrill
T3C1.100
; #@! TA.AperFunction,Plated,PTH,ComponentDrill
T4C1.100
; #@! TA.AperFunction,Plated,PTH,ComponentDrill
T5C1.200
%
G90
G05
T2
X62.0Y-70.0
X64.0Y-28.0
X64.0Y-30.54
X64.0Y-33.08
X68.0Y-70.0
X69.0Y-28.0
X69.0Y-30.54
X69.0Y-33.08
X74.0Y-70.0
X91.0Y-5.0
X95.0Y-5.0
X95.0Y-43.0
X95.0Y-45.54
X95.0Y-48.08
X95.0Y-50.62
X95.0Y-53.16
X96.0Y-70.0
X97.54Y-43.0
X97.54Y-45.54
X97.54Y-48.08
X97.54Y-50.62
X97.54Y-53.16
T3
X92.73Y-10.46
X95.27Y-10.46
T4
X92.73Y-13.0
X95.27Y-13.0
T5
X5.0Y-10.0
X5.0Y-14.0
X5.0Y-18.0
X5.0Y-22.0
X5.0Y-26.0
X5.0Y-30.0
X5.0Y-34.0
X5.0Y-38.0
X5.0Y-42.0
X5.0Y-46.0
X5.0Y-50.0
X5.0Y-54.0
X20.0Y-10.0
X20.0Y-14.0
X20.0Y-18.0
X20.0Y-22.0
X20.0Y-26.0
X20.0Y-30.0
X20.0Y-34.0
X20.0Y-38.0
X20.0Y-42.0
X20.0Y-46.0
X20.0Y-50.0
X20.0Y-54.0
X35.0Y-10.0
X35.0Y-14.0
X35.0Y-18.0
X35.0Y-22.0
X35.0Y-26.0
X35.0Y-30.0
X35.0Y-34.0
X35.0Y-38.0
X50.0Y-10.0
X50.0Y-14.0
X50.0Y-18.0
X50.0Y-22.0
X50.0Y-26.0
X50.0Y-30.0
X50.0Y-34.0
X50.0Y-38.0
T1
X79.68Y-73.84G85X79.68Y-74.44
G05
X79.68Y-77.64G85X79.68Y-78.24
G05
X88.32Y-73.84G85X88.32Y-74.44
G05
X88.32Y-77.64G85X88.32Y-78.24
G05
M30
