%TF.GenerationSoftware,KiCad,Pcbnew,10.0.0-unknown*%
%TF.CreationDate,2026-06-28T14:52:51-04:00*%
%TF.ProjectId,circuit,63697263-7569-4742-9e6b-696361645f70,rev?*%
%TF.SameCoordinates,Original*%
%TF.FileFunction,Paste,Top*%
%TF.FilePolarity,Positive*%
%FSLAX46Y46*%
G04 Gerber Fmt 4.6, Leading zero omitted, Abs format (unit mm)*
G04 Created by KiCad (PCBNEW 10.0.0-unknown) date 2026-06-28 14:52:51*
%MOMM*%
%LPD*%
G01*
G04 APERTURE LIST*
G04 Aperture macros list*
%AMRoundRect*
0 Rectangle with rounded corners*
0 $1 Rounding radius*
0 $2 $3 $4 $5 $6 $7 $8 $9 X,Y pos of 4 corners*
0 Add a 4 corners polygon primitive as box body*
4,1,4,$2,$3,$4,$5,$6,$7,$8,$9,$2,$3,0*
0 Add four circle primitives for the rounded corners*
1,1,$1+$1,$2,$3*
1,1,$1+$1,$4,$5*
1,1,$1+$1,$6,$7*
1,1,$1+$1,$8,$9*
0 Add four rect primitives between the rounded corners*
20,1,$1+$1,$2,$3,$4,$5,0*
20,1,$1+$1,$4,$5,$6,$7,0*
20,1,$1+$1,$6,$7,$8,$9,0*
20,1,$1+$1,$8,$9,$2,$3,0*%
G04 Aperture macros list end*
%ADD10RoundRect,0.250000X0.650000X-0.325000X0.650000X0.325000X-0.650000X0.325000X-0.650000X-0.325000X0*%
%ADD11RoundRect,0.225000X0.250000X-0.225000X0.250000X0.225000X-0.250000X0.225000X-0.250000X-0.225000X0*%
%ADD12R,2.470000X0.980000*%
%ADD13R,2.470000X3.600000*%
%ADD14RoundRect,0.200000X0.200000X0.275000X-0.200000X0.275000X-0.200000X-0.275000X0.200000X-0.275000X0*%
%ADD15O,0.590000X2.050000*%
%ADD16RoundRect,0.250000X-1.000000X-0.900000X1.000000X-0.900000X1.000000X0.900000X-1.000000X0.900000X0*%
%ADD17RoundRect,0.225000X-0.225000X-0.250000X0.225000X-0.250000X0.225000X0.250000X-0.225000X0.250000X0*%
%ADD18RoundRect,0.200000X0.275000X-0.200000X0.275000X0.200000X-0.275000X0.200000X-0.275000X-0.200000X0*%
%ADD19RoundRect,0.250001X0.944999X-0.507499X0.944999X0.507499X-0.944999X0.507499X-0.944999X-0.507499X0*%
%ADD20RoundRect,0.250000X0.262500X0.450000X-0.262500X0.450000X-0.262500X-0.450000X0.262500X-0.450000X0*%
%ADD21R,0.700000X1.200000*%
%ADD22R,0.800000X1.200000*%
%ADD23R,1.070000X0.530000*%
%ADD24RoundRect,0.218750X0.218750X0.256250X-0.218750X0.256250X-0.218750X-0.256250X0.218750X-0.256250X0*%
%ADD25RoundRect,0.200000X-0.200000X-0.275000X0.200000X-0.275000X0.200000X0.275000X-0.200000X0.275000X0*%
%ADD26RoundRect,0.250000X0.475000X-0.250000X0.475000X0.250000X-0.475000X0.250000X-0.475000X-0.250000X0*%
G04 APERTURE END LIST*
D10*
%TO.C,C1*%
X87000000Y-8475000D03*
X87000000Y-5525000D03*
%TD*%
D11*
%TO.C,C6*%
X94000000Y-75275000D03*
X94000000Y-73725000D03*
%TD*%
D12*
%TO.C,U2*%
X82830000Y-15800000D03*
X82830000Y-13500000D03*
X82830000Y-11200000D03*
D13*
X77170000Y-13500000D03*
%TD*%
D14*
%TO.C,R3*%
X76825000Y-30000000D03*
X75175000Y-30000000D03*
%TD*%
D15*
%TO.C,U1*%
X80090000Y-33570000D03*
X81370000Y-33570000D03*
X82630000Y-33570000D03*
X83900000Y-33570000D03*
X83900000Y-28430000D03*
X82630000Y-28430000D03*
X81370000Y-28430000D03*
X80090000Y-28430000D03*
%TD*%
D16*
%TO.C,D2*%
X88850000Y-18000000D03*
X93150000Y-18000000D03*
%TD*%
D17*
%TO.C,C3*%
X86225000Y-16000000D03*
X87775000Y-16000000D03*
%TD*%
D11*
%TO.C,C4*%
X87000000Y-34775000D03*
X87000000Y-33225000D03*
%TD*%
D18*
%TO.C,R6*%
X88000000Y-72625000D03*
X88000000Y-70975000D03*
%TD*%
%TO.C,R5*%
X80000000Y-72625000D03*
X80000000Y-70975000D03*
%TD*%
D19*
%TO.C,C2*%
X77000000Y-19627500D03*
X77000000Y-16372500D03*
%TD*%
D20*
%TO.C,R4*%
X91912500Y-22000000D03*
X90087500Y-22000000D03*
%TD*%
D21*
%TO.C,J5*%
X83500000Y-74060000D03*
X85520000Y-74060000D03*
D22*
X86750000Y-74060000D03*
D21*
X84500000Y-74060000D03*
X82480000Y-74060000D03*
D22*
X81250000Y-74060000D03*
%TD*%
D23*
%TO.C,Q1*%
X70990000Y-10950000D03*
X70990000Y-9050000D03*
X69010000Y-10000000D03*
%TD*%
D24*
%TO.C,D1*%
X79287500Y-22000000D03*
X77712500Y-22000000D03*
%TD*%
D25*
%TO.C,R2*%
X74175000Y-22000000D03*
X75825000Y-22000000D03*
%TD*%
%TO.C,R1*%
X72675000Y-12200000D03*
X74325000Y-12200000D03*
%TD*%
D26*
%TO.C,C5*%
X91000000Y-37450000D03*
X91000000Y-35550000D03*
%TD*%
M02*
