%TF.GenerationSoftware,KiCad,Pcbnew,10.0.0-unknown*%
%TF.CreationDate,2026-06-28T14:52:51-04:00*%
%TF.ProjectId,circuit,63697263-7569-4742-9e6b-696361645f70,rev?*%
%TF.SameCoordinates,Original*%
%TF.FileFunction,Soldermask,Top*%
%TF.FilePolarity,Negative*%
%FSLAX46Y46*%
G04 Gerber Fmt 4.6, Leading zero omitted, Abs format (unit mm)*
G04 Created by KiCad (PCBNEW 10.0.0-unknown) date 2026-06-28 14:52:51*
%MOMM*%
%LPD*%
G01*
G04 APERTURE LIST*
G04 Aperture macros list*
%AMRoundRect*
0 Rectangle with rounded corners*
0 $1 Rounding radius*
0 $2 $3 $4 $5 $6 $7 $8 $9 X,Y pos of 4 corners*
0 Add a 4 corners polygon primitive as box body*
4,1,4,$2,$3,$4,$5,$6,$7,$8,$9,$2,$3,0*
0 Add four circle primitives for the rounded corners*
1,1,$1+$1,$2,$3*
1,1,$1+$1,$4,$5*
1,1,$1+$1,$6,$7*
1,1,$1+$1,$8,$9*
0 Add four rect primitives between the rounded corners*
20,1,$1+$1,$2,$3,$4,$5,0*
20,1,$1+$1,$4,$5,$6,$7,0*
20,1,$1+$1,$6,$7,$8,$9,0*
20,1,$1+$1,$8,$9,$2,$3,0*%
%AMFreePoly0*
4,1,23,0.500000,-0.750000,0.000000,-0.750000,0.000000,-0.745722,-0.065263,-0.745722,-0.191342,-0.711940,-0.304381,-0.646677,-0.396677,-0.554381,-0.461940,-0.441342,-0.495722,-0.315263,-0.495722,-0.250000,-0.500000,-0.250000,-0.500000,0.250000,-0.495722,0.250000,-0.495722,0.315263,-0.461940,0.441342,-0.396677,0.554381,-0.304381,0.646677,-0.191342,0.711940,-0.065263,0.745722,0.000000,0.745722,
0.000000,0.750000,0.500000,0.750000,0.500000,-0.750000,0.500000,-0.750000,$1*%
%AMFreePoly1*
4,1,23,0.000000,0.745722,0.065263,0.745722,0.191342,0.711940,0.304381,0.646677,0.396677,0.554381,0.461940,0.441342,0.495722,0.315263,0.495722,0.250000,0.500000,0.250000,0.500000,-0.250000,0.495722,-0.250000,0.495722,-0.315263,0.461940,-0.441342,0.396677,-0.554381,0.304381,-0.646677,0.191342,-0.711940,0.065263,-0.745722,0.000000,-0.745722,0.000000,-0.750000,-0.500000,-0.750000,
-0.500000,0.750000,0.000000,0.750000,0.000000,0.745722,0.000000,0.745722,$1*%
%AMFreePoly2*
4,1,6,1.000000,0.000000,0.500000,-0.750000,-0.500000,-0.750000,-0.500000,0.750000,0.500000,0.750000,1.000000,0.000000,1.000000,0.000000,$1*%
G04 Aperture macros list end*
%ADD10RoundRect,0.250000X0.650000X-0.325000X0.650000X0.325000X-0.650000X0.325000X-0.650000X-0.325000X0*%
%ADD11C,2.500000*%
%ADD12RoundRect,0.225000X0.250000X-0.225000X0.250000X0.225000X-0.250000X0.225000X-0.250000X-0.225000X0*%
%ADD13R,2.470000X0.980000*%
%ADD14R,2.470000X3.600000*%
%ADD15C,2.000000*%
%ADD16RoundRect,0.200000X0.200000X0.275000X-0.200000X0.275000X-0.200000X-0.275000X0.200000X-0.275000X0*%
%ADD17O,0.590000X2.050000*%
%ADD18RoundRect,0.250000X-1.000000X-0.900000X1.000000X-0.900000X1.000000X0.900000X-1.000000X0.900000X0*%
%ADD19R,1.700000X1.700000*%
%ADD20C,1.700000*%
%ADD21RoundRect,0.225000X-0.225000X-0.250000X0.225000X-0.250000X0.225000X0.250000X-0.225000X0.250000X0*%
%ADD22RoundRect,0.200000X0.275000X-0.200000X0.275000X0.200000X-0.275000X0.200000X-0.275000X-0.200000X0*%
%ADD23C,1.800000*%
%ADD24RoundRect,0.250001X0.944999X-0.507499X0.944999X0.507499X-0.944999X0.507499X-0.944999X-0.507499X0*%
%ADD25RoundRect,0.250000X0.262500X0.450000X-0.262500X0.450000X-0.262500X-0.450000X0.262500X-0.450000X0*%
%ADD26O,1.100000X1.700000*%
%ADD27R,0.700000X1.200000*%
%ADD28R,0.800000X1.200000*%
%ADD29R,1.070000X0.530000*%
%ADD30FreePoly0,0.000000*%
%ADD31FreePoly1,0.000000*%
%ADD32RoundRect,0.218750X0.218750X0.256250X-0.218750X0.256250X-0.218750X-0.256250X0.218750X-0.256250X0*%
%ADD33FreePoly2,0.000000*%
%ADD34FreePoly2,180.000000*%
%ADD35RoundRect,0.200000X-0.200000X-0.275000X0.200000X-0.275000X0.200000X0.275000X-0.200000X0.275000X0*%
%ADD36RoundRect,0.250000X0.475000X-0.250000X0.475000X0.250000X-0.475000X0.250000X-0.475000X-0.250000X0*%
G04 APERTURE END LIST*
%TO.C,JP2*%
G36*
X90850000Y-24250000D02*
G01*
X91150000Y-24250000D01*
X91150000Y-25750000D01*
X90850000Y-25750000D01*
X90850000Y-24250000D01*
G37*
%TO.C,JP1*%
G36*
X61500000Y-9250000D02*
G01*
X66500000Y-9250000D01*
X66500000Y-10750000D01*
X61500000Y-10750000D01*
X61500000Y-9250000D01*
G37*
%TD*%
D10*
%TO.C,C1*%
X87000000Y-8475000D03*
X87000000Y-5525000D03*
%TD*%
D11*
%TO.C,TP14*%
X20000000Y-14000000D03*
%TD*%
D12*
%TO.C,C6*%
X94000000Y-75275000D03*
X94000000Y-73725000D03*
%TD*%
D11*
%TO.C,TP9*%
X5000000Y-42000000D03*
%TD*%
D13*
%TO.C,U2*%
X82830000Y-15800000D03*
X82830000Y-13500000D03*
X82830000Y-11200000D03*
D14*
X77170000Y-13500000D03*
%TD*%
D11*
%TO.C,TP37*%
X50000000Y-26000000D03*
%TD*%
D15*
%TO.C,TP44*%
X96000000Y-70000000D03*
%TD*%
D11*
%TO.C,TP36*%
X50000000Y-22000000D03*
%TD*%
D16*
%TO.C,R3*%
X76825000Y-30000000D03*
X75175000Y-30000000D03*
%TD*%
D11*
%TO.C,TP39*%
X50000000Y-34000000D03*
%TD*%
D17*
%TO.C,U1*%
X80090000Y-33570000D03*
X81370000Y-33570000D03*
X82630000Y-33570000D03*
X83900000Y-33570000D03*
X83900000Y-28430000D03*
X82630000Y-28430000D03*
X81370000Y-28430000D03*
X80090000Y-28430000D03*
%TD*%
D18*
%TO.C,D2*%
X88850000Y-18000000D03*
X93150000Y-18000000D03*
%TD*%
D11*
%TO.C,TP13*%
X20000000Y-10000000D03*
%TD*%
%TO.C,TP29*%
X35000000Y-26000000D03*
%TD*%
%TO.C,TP21*%
X20000000Y-42000000D03*
%TD*%
%TO.C,TP25*%
X35000000Y-10000000D03*
%TD*%
%TO.C,TP30*%
X35000000Y-30000000D03*
%TD*%
%TO.C,TP20*%
X20000000Y-38000000D03*
%TD*%
D15*
%TO.C,TP42*%
X68000000Y-70000000D03*
%TD*%
%TO.C,TP43*%
X74000000Y-70000000D03*
%TD*%
D19*
%TO.C,J4*%
X95000000Y-43000000D03*
D20*
X97540000Y-43000000D03*
X95000000Y-45540000D03*
X97540000Y-45540000D03*
X95000000Y-48080000D03*
X97540000Y-48080000D03*
X95000000Y-50620000D03*
X97540000Y-50620000D03*
X95000000Y-53160000D03*
X97540000Y-53160000D03*
%TD*%
D11*
%TO.C,TP24*%
X20000000Y-54000000D03*
%TD*%
D21*
%TO.C,C3*%
X86225000Y-16000000D03*
X87775000Y-16000000D03*
%TD*%
D11*
%TO.C,TP3*%
X5000000Y-18000000D03*
%TD*%
D19*
%TO.C,J3*%
X69000000Y-28000000D03*
D20*
X69000000Y-30540000D03*
X69000000Y-33080000D03*
%TD*%
D12*
%TO.C,C4*%
X87000000Y-34775000D03*
X87000000Y-33225000D03*
%TD*%
D22*
%TO.C,R6*%
X88000000Y-72625000D03*
X88000000Y-70975000D03*
%TD*%
D11*
%TO.C,TP26*%
X35000000Y-14000000D03*
%TD*%
%TO.C,TP40*%
X50000000Y-38000000D03*
%TD*%
D20*
%TO.C,J1*%
X92730000Y-10460000D03*
X95270000Y-10460000D03*
D23*
X92730000Y-13000000D03*
X95270000Y-13000000D03*
%TD*%
D22*
%TO.C,R5*%
X80000000Y-72625000D03*
X80000000Y-70975000D03*
%TD*%
D11*
%TO.C,TP38*%
X50000000Y-30000000D03*
%TD*%
%TO.C,TP18*%
X20000000Y-30000000D03*
%TD*%
D15*
%TO.C,TP45*%
X91000000Y-5000000D03*
%TD*%
D11*
%TO.C,TP32*%
X35000000Y-38000000D03*
%TD*%
%TO.C,TP31*%
X35000000Y-34000000D03*
%TD*%
%TO.C,TP28*%
X35000000Y-22000000D03*
%TD*%
%TO.C,TP5*%
X5000000Y-26000000D03*
%TD*%
D19*
%TO.C,J2*%
X64000000Y-28000000D03*
D20*
X64000000Y-30540000D03*
X64000000Y-33080000D03*
%TD*%
D24*
%TO.C,C2*%
X77000000Y-19627500D03*
X77000000Y-16372500D03*
%TD*%
D11*
%TO.C,TP34*%
X50000000Y-14000000D03*
%TD*%
%TO.C,TP27*%
X35000000Y-18000000D03*
%TD*%
%TO.C,TP7*%
X5000000Y-34000000D03*
%TD*%
%TO.C,TP17*%
X20000000Y-26000000D03*
%TD*%
%TO.C,TP1*%
X5000000Y-10000000D03*
%TD*%
%TO.C,TP10*%
X5000000Y-46000000D03*
%TD*%
D25*
%TO.C,R4*%
X91912500Y-22000000D03*
X90087500Y-22000000D03*
%TD*%
D15*
%TO.C,TP46*%
X95000000Y-5000000D03*
%TD*%
D11*
%TO.C,TP22*%
X20000000Y-46000000D03*
%TD*%
%TO.C,TP23*%
X20000000Y-50000000D03*
%TD*%
D26*
%TO.C,J5*%
X79680000Y-74140000D03*
X79680000Y-77940000D03*
X88320000Y-74140000D03*
X88320000Y-77940000D03*
D27*
X83500000Y-74060000D03*
X85520000Y-74060000D03*
D28*
X86750000Y-74060000D03*
D27*
X84500000Y-74060000D03*
X82480000Y-74060000D03*
D28*
X81250000Y-74060000D03*
%TD*%
D29*
%TO.C,Q1*%
X70990000Y-10950000D03*
X70990000Y-9050000D03*
X69010000Y-10000000D03*
%TD*%
D11*
%TO.C,TP35*%
X50000000Y-18000000D03*
%TD*%
%TO.C,TP11*%
X5000000Y-50000000D03*
%TD*%
%TO.C,TP6*%
X5000000Y-30000000D03*
%TD*%
%TO.C,TP16*%
X20000000Y-22000000D03*
%TD*%
D30*
%TO.C,JP2*%
X90350000Y-25000000D03*
D31*
X91650000Y-25000000D03*
%TD*%
D11*
%TO.C,TP33*%
X50000000Y-10000000D03*
%TD*%
%TO.C,TP8*%
X5000000Y-38000000D03*
%TD*%
%TO.C,TP15*%
X20000000Y-18000000D03*
%TD*%
%TO.C,TP4*%
X5000000Y-22000000D03*
%TD*%
D15*
%TO.C,TP41*%
X62000000Y-70000000D03*
%TD*%
D11*
%TO.C,TP19*%
X20000000Y-34000000D03*
%TD*%
D32*
%TO.C,D1*%
X79287500Y-22000000D03*
X77712500Y-22000000D03*
%TD*%
D33*
%TO.C,JP1*%
X62000000Y-10000000D03*
D34*
X66000000Y-10000000D03*
%TD*%
D35*
%TO.C,R2*%
X74175000Y-22000000D03*
X75825000Y-22000000D03*
%TD*%
D11*
%TO.C,TP2*%
X5000000Y-14000000D03*
%TD*%
D35*
%TO.C,R1*%
X72675000Y-12200000D03*
X74325000Y-12200000D03*
%TD*%
D11*
%TO.C,TP12*%
X5000000Y-54000000D03*
%TD*%
D36*
%TO.C,C5*%
X91000000Y-37450000D03*
X91000000Y-35550000D03*
%TD*%
M02*
