%TF.GenerationSoftware,KiCad,Pcbnew,10.0.0-unknown*%
%TF.CreationDate,2026-06-28T14:52:51-04:00*%
%TF.ProjectId,circuit,63697263-7569-4742-9e6b-696361645f70,rev?*%
%TF.SameCoordinates,Original*%
%TF.FileFunction,Copper,L2,Bot*%
%TF.FilePolarity,Positive*%
%FSLAX46Y46*%
G04 Gerber Fmt 4.6, Leading zero omitted, Abs format (unit mm)*
G04 Created by KiCad (PCBNEW 10.0.0-unknown) date 2026-06-28 14:52:51*
%MOMM*%
%LPD*%
G01*
G04 APERTURE LIST*
%TA.AperFunction,ComponentPad*%
%ADD10C,2.500000*%
%TD*%
%TA.AperFunction,ComponentPad*%
%ADD11C,2.000000*%
%TD*%
%TA.AperFunction,ComponentPad*%
%ADD12R,1.700000X1.700000*%
%TD*%
%TA.AperFunction,ComponentPad*%
%ADD13C,1.700000*%
%TD*%
%TA.AperFunction,ComponentPad*%
%ADD14C,1.800000*%
%TD*%
%TA.AperFunction,ComponentPad*%
%ADD15O,1.100000X1.700000*%
%TD*%
G04 APERTURE END LIST*
D10*
%TO.P,TP14,1*%
%TO.N,H24_14*%
X20000000Y-14000000D03*
%TD*%
%TO.P,TP9,1*%
%TO.N,RL_SPK_N*%
X5000000Y-42000000D03*
%TD*%
%TO.P,TP37,1*%
%TO.N,H16_13*%
X50000000Y-26000000D03*
%TD*%
D11*
%TO.P,TP44,1*%
%TO.N,GND*%
X96000000Y-70000000D03*
%TD*%
D10*
%TO.P,TP36,1*%
%TO.N,H16_12*%
X50000000Y-22000000D03*
%TD*%
%TO.P,TP39,1*%
%TO.N,H16_15*%
X50000000Y-34000000D03*
%TD*%
%TO.P,TP13,1*%
%TO.N,H24_13*%
X20000000Y-10000000D03*
%TD*%
%TO.P,TP29,1*%
%TO.N,H16_05*%
X35000000Y-26000000D03*
%TD*%
%TO.P,TP21,1*%
%TO.N,H24_21*%
X20000000Y-42000000D03*
%TD*%
%TO.P,TP25,1*%
%TO.N,H16_01*%
X35000000Y-10000000D03*
%TD*%
%TO.P,TP30,1*%
%TO.N,H16_06*%
X35000000Y-30000000D03*
%TD*%
%TO.P,TP20,1*%
%TO.N,H24_20*%
X20000000Y-38000000D03*
%TD*%
D11*
%TO.P,TP42,1*%
%TO.N,5V_USB*%
X68000000Y-70000000D03*
%TD*%
%TO.P,TP43,1*%
%TO.N,VIN12*%
X74000000Y-70000000D03*
%TD*%
D12*
%TO.P,J4,1*%
%TO.N,CAN_TX*%
X95000000Y-43000000D03*
D13*
%TO.P,J4,2*%
%TO.N,CAN_RX*%
X97540000Y-43000000D03*
%TO.P,J4,3*%
%TO.N,3V3*%
X95000000Y-45540000D03*
%TO.P,J4,4*%
%TO.N,GND*%
X97540000Y-45540000D03*
%TO.P,J4,5*%
%TO.N,5V_USB*%
X95000000Y-48080000D03*
%TO.P,J4,6*%
%TO.N,GND*%
X97540000Y-48080000D03*
%TO.P,J4,7*%
%TO.N,N/C*%
X95000000Y-50620000D03*
%TO.P,J4,8*%
X97540000Y-50620000D03*
%TO.P,J4,9*%
X95000000Y-53160000D03*
%TO.P,J4,10*%
X97540000Y-53160000D03*
%TD*%
D10*
%TO.P,TP24,1*%
%TO.N,H24_24*%
X20000000Y-54000000D03*
%TD*%
%TO.P,TP3,1*%
%TO.N,GND*%
X5000000Y-18000000D03*
%TD*%
D12*
%TO.P,J3,1*%
%TO.N,3V3*%
X69000000Y-28000000D03*
D13*
%TO.P,J3,2*%
%TO.N,GND*%
X69000000Y-30540000D03*
%TO.P,J3,3*%
%TO.N,CAN_RX*%
X69000000Y-33080000D03*
%TD*%
D10*
%TO.P,TP26,1*%
%TO.N,H16_02*%
X35000000Y-14000000D03*
%TD*%
%TO.P,TP40,1*%
%TO.N,H16_16*%
X50000000Y-38000000D03*
%TD*%
D13*
%TO.P,J1,*%
%TO.N,*%
X92730000Y-10460000D03*
X95270000Y-10460000D03*
D14*
%TO.P,J1,1*%
%TO.N,CANH*%
X92730000Y-13000000D03*
%TO.P,J1,2*%
%TO.N,CANL*%
X95270000Y-13000000D03*
%TD*%
D10*
%TO.P,TP38,1*%
%TO.N,H16_14*%
X50000000Y-30000000D03*
%TD*%
%TO.P,TP18,1*%
%TO.N,H24_18*%
X20000000Y-30000000D03*
%TD*%
D11*
%TO.P,TP45,1*%
%TO.N,CANH*%
X91000000Y-5000000D03*
%TD*%
D10*
%TO.P,TP32,1*%
%TO.N,H16_08*%
X35000000Y-38000000D03*
%TD*%
%TO.P,TP31,1*%
%TO.N,H16_07*%
X35000000Y-34000000D03*
%TD*%
%TO.P,TP28,1*%
%TO.N,H16_04*%
X35000000Y-22000000D03*
%TD*%
%TO.P,TP5,1*%
%TO.N,FL_SPK_N*%
X5000000Y-26000000D03*
%TD*%
D12*
%TO.P,J2,1*%
%TO.N,3V3*%
X64000000Y-28000000D03*
D13*
%TO.P,J2,2*%
%TO.N,GND*%
X64000000Y-30540000D03*
%TO.P,J2,3*%
%TO.N,CAN_TX*%
X64000000Y-33080000D03*
%TD*%
D10*
%TO.P,TP34,1*%
%TO.N,H16_10*%
X50000000Y-14000000D03*
%TD*%
%TO.P,TP27,1*%
%TO.N,H16_03*%
X35000000Y-18000000D03*
%TD*%
%TO.P,TP7,1*%
%TO.N,FR_SPK_N*%
X5000000Y-34000000D03*
%TD*%
%TO.P,TP17,1*%
%TO.N,H24_17*%
X20000000Y-26000000D03*
%TD*%
%TO.P,TP1,1*%
%TO.N,BAT12*%
X5000000Y-10000000D03*
%TD*%
%TO.P,TP10,1*%
%TO.N,RR_SPK_P*%
X5000000Y-46000000D03*
%TD*%
D11*
%TO.P,TP46,1*%
%TO.N,CANL*%
X95000000Y-5000000D03*
%TD*%
D10*
%TO.P,TP22,1*%
%TO.N,H24_22*%
X20000000Y-46000000D03*
%TD*%
%TO.P,TP23,1*%
%TO.N,H24_23*%
X20000000Y-50000000D03*
%TD*%
D15*
%TO.P,J5,7*%
%TO.N,GND*%
X79680000Y-74140000D03*
X79680000Y-77940000D03*
X88320000Y-74140000D03*
X88320000Y-77940000D03*
%TD*%
D10*
%TO.P,TP35,1*%
%TO.N,H16_11*%
X50000000Y-18000000D03*
%TD*%
%TO.P,TP11,1*%
%TO.N,RR_SPK_N*%
X5000000Y-50000000D03*
%TD*%
%TO.P,TP6,1*%
%TO.N,FR_SPK_P*%
X5000000Y-30000000D03*
%TD*%
%TO.P,TP16,1*%
%TO.N,H24_16*%
X20000000Y-22000000D03*
%TD*%
%TO.P,TP33,1*%
%TO.N,H16_09*%
X50000000Y-10000000D03*
%TD*%
%TO.P,TP8,1*%
%TO.N,RL_SPK_P*%
X5000000Y-38000000D03*
%TD*%
%TO.P,TP15,1*%
%TO.N,H24_15*%
X20000000Y-18000000D03*
%TD*%
%TO.P,TP4,1*%
%TO.N,FL_SPK_P*%
X5000000Y-22000000D03*
%TD*%
D11*
%TO.P,TP41,1*%
%TO.N,3V3*%
X62000000Y-70000000D03*
%TD*%
D10*
%TO.P,TP19,1*%
%TO.N,H24_19*%
X20000000Y-34000000D03*
%TD*%
%TO.P,TP2,1*%
%TO.N,ACC12*%
X5000000Y-14000000D03*
%TD*%
%TO.P,TP12,1*%
%TO.N,H24_12*%
X5000000Y-54000000D03*
%TD*%
M02*
